<svg width="70" height="60" viewBox="0 0 70 60" fill="none" xmlns="http://www.w3.org/2000/svg">
<path d="M61.2941 58C63.0414 58 64.7172 57.3059 65.9527 56.0703C67.1882 54.8348 67.8824 53.1591 67.8824 51.4118V18.4706C67.8824 16.7233 67.1882 15.0475 65.9527 13.812C64.7172 12.5765 63.0414 11.8824 61.2941 11.8824H35.2706C34.1688 11.8932 33.0818 11.6274 32.1092 11.1095C31.1367 10.5915 30.3095 9.83794 29.7035 8.91765L27.0353 4.96471C26.4354 4.05378 25.6187 3.30605 24.6586 2.7886C23.6984 2.27115 22.6248 2.00018 21.5341 2H8.58824C6.84093 2 5.16518 2.69412 3.92965 3.92965C2.69412 5.16518 2 6.84093 2 8.58824V51.4118C2 53.1591 2.69412 54.8348 3.92965 56.0703C5.16518 57.3059 6.84093 58 8.58824 58H61.2941Z" stroke="#5463EA" stroke-width="4" stroke-linecap="round" stroke-linejoin="round"/>
<path d="M34.9414 25.0586V44.8233" stroke="#5463EA" stroke-width="4" stroke-linecap="round" stroke-linejoin="round"/>
<path d="M25.0586 34.9409L34.9409 25.0586L44.8233 34.9409" stroke="#5463EA" stroke-width="4" stroke-linecap="round" stroke-linejoin="round"/>
</svg>
